<svg width="552" height="475" viewBox="0 0 552 475" fill="none" xmlns="http://www.w3.org/2000/svg">
<g clip-path="url(#clip0_217_258)">
<path d="M230.974 51.9417C221.914 52.5065 212.043 51.9088 201.542 51.9417V28.5076C210.795 29.9116 220.663 29.7674 230.974 28.5076V51.9417Z" fill="#E6E6E6"/>
<path d="M295.787 70.2144L297.202 68.0822C296.783 66.952 296.298 65.8457 295.75 64.7688L294.835 65.4893L295.56 64.3976C294.869 63.0725 294.325 62.2375 294.325 62.2375C292.582 65.0146 291.303 68.0449 290.538 71.2143L292.355 73.9504L290.344 72.3674C290.272 72.9052 290.235 73.4468 290.233 73.9891C290.233 79.4566 292.065 83.8889 294.325 83.8889C296.585 83.8889 298.418 79.4566 298.418 73.9891C298.375 72.2496 298.059 70.5267 297.481 68.8804L295.787 70.2144Z" fill="#E6E6E6"/>
<path d="M305.806 74.9546L308.354 74.4225C308.877 73.334 309.337 72.2176 309.731 71.0787L308.561 70.9573L309.865 70.6849C310.338 69.2718 310.56 68.3069 310.56 68.3069C307.312 69.0687 304.209 70.3303 301.369 72.0442L300.669 75.2308L300.395 72.7256C299.954 73.0565 299.535 73.4141 299.141 73.7963C295.174 77.6624 293.254 82.0591 294.852 83.6167C296.45 85.1742 300.961 83.3028 304.928 79.4367C306.16 78.1775 307.186 76.7416 307.972 75.1791L305.806 74.9546Z" fill="#E6E6E6"/>
<path d="M306.737 96.111C300.829 96.4793 294.391 96.0895 287.543 96.111V80.8286C293.91 81.6979 300.37 81.6979 306.737 80.8286V96.111Z" fill="#E6E6E6"/>
<path d="M303.088 141.402C297.872 141.727 292.187 141.383 286.14 141.402V127.907C291.762 128.675 297.466 128.675 303.088 127.907V141.402Z" fill="#E6E6E6"/>
<path d="M332.856 50.2935H104.794V56.5025H332.856V50.2935Z" fill="#E6E6E6"/>
<path d="M332.856 94.3782H104.794V100.587H332.856V94.3782Z" fill="#E6E6E6"/>
<path d="M332.856 138.463H104.794V144.672H332.856V138.463Z" fill="#E6E6E6"/>
<path d="M294.633 132.874C301.67 132.874 307.374 127.315 307.374 120.456C307.374 113.598 301.67 108.038 294.633 108.038C287.597 108.038 281.893 113.598 281.893 120.456C281.893 127.315 287.597 132.874 294.633 132.874Z" fill="#E6E6E6"/>
<path d="M294.634 130.391C300.263 130.391 304.826 125.943 304.826 120.456C304.826 114.97 300.263 110.522 294.634 110.522C289.004 110.522 284.441 114.97 284.441 120.456C284.441 125.943 289.004 130.391 294.634 130.391Z" fill="white"/>
<path d="M294.634 122.94C296.041 122.94 297.182 121.828 297.182 120.456C297.182 119.085 296.041 117.973 294.634 117.973C293.226 117.973 292.085 119.085 292.085 120.456C292.085 121.828 293.226 122.94 294.634 122.94Z" fill="#E6E6E6"/>
<path d="M303.552 121.077V119.835H293.36V121.077H303.552Z" fill="#E6E6E6"/>
<path d="M293.996 121.698H295.271V111.763H293.996V121.698Z" fill="#E6E6E6"/>
<path d="M220.964 64.0881H212.534V96.6118H220.964V64.0881Z" fill="#E6E6E6"/>
<path d="M220.964 69.2234H212.534V72.9893H220.964V69.2234Z" fill="#CCCCCC"/>
<path d="M220.964 85.6565H212.534V89.4224H220.964V85.6565Z" fill="#CCCCCC"/>
<path d="M207.968 64.0881H199.538V96.6118H207.968V64.0881Z" fill="#E6E6E6"/>
<path d="M207.968 69.2234H199.538V72.9893H207.968V69.2234Z" fill="#CCCCCC"/>
<path d="M207.968 85.6565H199.538V89.4224H207.968V85.6565Z" fill="#CCCCCC"/>
<path d="M228.227 63.9535L220.672 67.5991L235.478 96.7462L243.033 93.1006L228.227 63.9535Z" fill="#E6E6E6"/>
<path d="M230.565 68.5558L223.01 72.2014L224.725 75.5763L232.279 71.9308L230.565 68.5558Z" fill="#CCCCCC"/>
<path d="M238.046 83.2826L230.491 86.9282L232.205 90.3032L239.76 86.6576L238.046 83.2826Z" fill="#CCCCCC"/>
<path d="M145.792 108.173H137.362V140.696H145.792V108.173Z" fill="#E6E6E6"/>
<path d="M145.792 113.308H137.362V117.074H145.792V113.308Z" fill="#CCCCCC"/>
<path d="M145.792 129.741H137.362V133.507H145.792V129.741Z" fill="#CCCCCC"/>
<path d="M132.796 108.173H124.366V140.696H132.796V108.173Z" fill="#E6E6E6"/>
<path d="M132.796 113.308H124.366V117.074H132.796V113.308Z" fill="#CCCCCC"/>
<path d="M132.796 129.741H124.366V133.507H132.796V129.741Z" fill="#CCCCCC"/>
<path d="M153.056 108.038L145.501 111.684L160.306 140.831L167.861 137.185L153.056 108.038Z" fill="#E6E6E6"/>
<path d="M155.394 112.64L147.839 116.286L149.553 119.661L157.108 116.015L155.394 112.64Z" fill="#CCCCCC"/>
<path d="M162.874 127.367L155.319 131.013L157.034 134.388L164.589 130.742L162.874 127.367Z" fill="#CCCCCC"/>
<path d="M224.786 108.173H216.356V140.696H224.786V108.173Z" fill="#E6E6E6"/>
<path d="M224.786 113.308H216.356V117.074H224.786V113.308Z" fill="#CCCCCC"/>
<path d="M224.786 129.741H216.356V133.507H224.786V129.741Z" fill="#CCCCCC"/>
<path d="M211.79 108.173H203.36V140.696H211.79V108.173Z" fill="#E6E6E6"/>
<path d="M211.79 113.308H203.36V117.074H211.79V113.308Z" fill="#CCCCCC"/>
<path d="M211.79 129.741H203.36V133.507H211.79V129.741Z" fill="#CCCCCC"/>
<path d="M232.049 108.038L224.495 111.684L239.3 140.831L246.855 137.185L232.049 108.038Z" fill="#E6E6E6"/>
<path d="M234.387 112.64L226.833 116.286L228.547 119.661L236.102 116.015L234.387 112.64Z" fill="#CCCCCC"/>
<path d="M241.868 127.367L234.313 131.013L236.027 134.388L243.582 130.742L241.868 127.367Z" fill="#CCCCCC"/>
<path d="M315.019 19.906H281.514V52.5621H315.019V19.906Z" fill="#E6E6E6"/>
<path d="M308.318 26.4373H288.215V46.0309H308.318V26.4373Z" fill="#CCCCCC"/>
<path d="M294.034 33.0142L298.297 40.2099L302.56 47.4057H294.034H285.509L289.772 40.2099L294.034 33.0142Z" fill="#E6E6E6"/>
<path d="M301.441 34.3892L305.704 41.5849L309.966 48.7807H301.441H292.916L297.178 41.5849L301.441 34.3892Z" fill="#E6E6E6"/>
<path d="M304.439 32.281C305.802 32.281 306.907 31.2037 306.907 29.8747C306.907 28.5458 305.802 27.4685 304.439 27.4685C303.075 27.4685 301.97 28.5458 301.97 29.8747C301.97 31.2037 303.075 32.281 304.439 32.281Z" fill="#E6E6E6"/>
<path d="M145.565 19.906H112.06V52.5621H145.565V19.906Z" fill="#E6E6E6"/>
<path d="M138.864 26.4373H118.761V46.0309H138.864V26.4373Z" fill="#CCCCCC"/>
<path d="M124.58 33.0142L128.843 40.2099L133.105 47.4057H124.58H116.055L120.317 40.2099L124.58 33.0142Z" fill="#E6E6E6"/>
<path d="M131.987 34.3892L136.249 41.5849L140.512 48.7807H131.987H123.462L127.724 41.5849L131.987 34.3892Z" fill="#E6E6E6"/>
<path d="M134.984 32.281C136.348 32.281 137.453 31.2037 137.453 29.8747C137.453 28.5458 136.348 27.4685 134.984 27.4685C133.621 27.4685 132.516 28.5458 132.516 29.8747C132.516 31.2037 133.621 32.281 134.984 32.281Z" fill="#E6E6E6"/>
<path d="M44.7292 242.589L46.8997 239.319C46.2561 237.586 45.5126 235.89 44.6729 234.238L43.2693 235.343L44.3807 233.669C43.3216 231.637 42.4882 230.357 42.4882 230.357C42.4882 230.357 38.1351 237.043 36.6807 244.122L39.466 248.318L36.3825 245.89C36.2727 246.715 36.2162 247.545 36.2134 248.377C36.2134 256.761 39.0227 263.557 42.4882 263.557C45.9537 263.557 48.763 256.761 48.763 248.377C48.698 245.709 48.2139 243.068 47.3275 240.543L44.7292 242.589Z" fill="#6C63FF"/>
<path d="M60.0925 249.857L63.9993 249.041C64.8015 247.372 65.5064 245.66 66.1107 243.914L64.3167 243.728L66.317 243.31C67.0422 241.143 67.3818 239.664 67.3818 239.664C67.3818 239.664 59.453 241.391 53.2889 245.394L52.2146 250.281L51.7954 246.439C51.1194 246.947 50.4769 247.495 49.8717 248.081C43.7893 254.009 40.845 260.751 43.2955 263.14C45.7459 265.528 52.6632 262.658 58.7456 256.73C60.6348 254.799 62.2091 252.597 63.4138 250.202L60.0925 249.857Z" fill="#6C63FF"/>
<path d="M61.5195 282.299C52.46 282.863 42.5888 282.266 32.0874 282.299V258.865C41.3409 260.269 51.2088 260.124 61.5195 258.865V282.299Z" fill="#3F3D56"/>
<path d="M435.739 289.654H313.426V444.26H435.739V289.654Z" fill="#E6E6E6"/>
<path d="M64.3416 297.726H57.9712V444.26H64.3416V297.726Z" fill="#E6E6E6"/>
<path d="M435.739 279.098H0V291.517H435.739V279.098Z" fill="#E6E6E6"/>
<path d="M67.527 291.517H54.7861V303.935H67.527V291.517Z" fill="#E6E6E6"/>
<path d="M384.218 298.657L383.501 301.451H365.664L364.589 298.657H319.16V327.219H430.006V298.657H384.218Z" fill="#3F3D56"/>
<path d="M384.218 334.669L383.501 337.463H365.664L364.589 334.669H319.16V363.231H430.006V334.669H384.218Z" fill="#3F3D56"/>
<path d="M384.218 370.682L383.501 373.476H365.664L364.589 370.682H319.16V399.244H430.006V370.682H384.218Z" fill="#3F3D56"/>
<path d="M384.218 406.695L383.501 409.489H365.664L364.589 406.695H319.16V435.257H430.006V406.695H384.218Z" fill="#3F3D56"/>
<path d="M236.344 277.235H198.758L200.032 261.092H235.07L236.344 277.235Z" fill="#E6E6E6"/>
<path d="M238.892 275.373H196.847V279.098H238.892V275.373Z" fill="#E6E6E6"/>
<path d="M289.537 157.09H145.883C144.87 157.09 143.897 157.482 143.181 158.181C142.464 158.88 142.061 159.827 142.061 160.815V246.19H293.359V160.815C293.359 159.827 292.957 158.88 292.24 158.181C291.523 157.482 290.551 157.09 289.537 157.09Z" fill="#3F3D56"/>
<path d="M142.061 246.19V260.161C142.061 261.149 142.464 262.096 143.181 262.795C143.897 263.494 144.87 263.886 145.883 263.886H289.537C290.551 263.886 291.523 263.494 292.24 262.795C292.957 262.096 293.359 261.149 293.359 260.161V246.19H142.061Z" fill="#E6E6E6"/>
<path d="M286.033 164.851H149.706V239.36H286.033V164.851Z" fill="white"/>
<path d="M217.87 258.608C219.981 258.608 221.692 256.94 221.692 254.883C221.692 252.825 219.981 251.157 217.87 251.157C215.759 251.157 214.047 252.825 214.047 254.883C214.047 256.94 215.759 258.608 217.87 258.608Z" fill="#3F3D56"/>
<path d="M541.17 443.329C527.248 444.197 512.078 443.278 495.94 443.329V407.316C510.16 409.474 525.325 409.252 541.17 407.316V443.329Z" fill="#3F3D56"/>
<path d="M520.148 410.55H516.325L517.6 337.774H518.873L520.148 410.55Z" fill="#3F3D56"/>
<path d="M537.348 411.042H533.526L534.8 338.266H536.074L537.348 411.042Z" fill="#3F3D56"/>
<path d="M504.859 411.042H501.036L502.31 338.266H503.584L504.859 411.042Z" fill="#3F3D56"/>
<path d="M523.333 291.206L529.503 281.912C527.673 276.985 525.56 272.163 523.173 267.469L519.183 270.609L522.342 265.851C519.331 260.074 516.962 256.435 516.962 256.435C516.962 256.435 504.588 275.441 500.453 295.565L508.371 307.491L499.606 300.591C499.294 302.935 499.133 305.296 499.125 307.66C499.125 331.493 507.111 350.813 516.962 350.813C526.814 350.813 534.8 331.493 534.8 307.66C534.8 300.272 533.085 292.542 530.719 285.391L523.333 291.206Z" fill="#E6E6E6"/>
<path d="M540.533 292.448L546.704 283.154C544.874 278.227 542.76 273.405 540.373 268.711L536.383 271.851L539.543 267.093C536.532 261.316 534.163 257.677 534.163 257.677C534.163 257.677 521.788 276.683 517.654 296.807L525.572 308.733L516.807 301.833C516.494 304.177 516.334 306.538 516.326 308.902C516.326 332.735 524.312 352.055 534.163 352.055C544.014 352.055 552 332.735 552 308.902C552 301.514 550.285 293.784 547.92 286.633L540.533 292.448Z" fill="#6C63FF"/>
<path d="M508.044 292.448L514.214 283.154C512.384 278.227 510.271 273.405 507.884 268.711L503.894 271.851L507.053 267.093C504.042 261.316 501.673 257.677 501.673 257.677C501.673 257.677 489.299 276.683 485.164 296.807L493.082 308.733L484.317 301.833C484.005 304.177 483.844 306.538 483.836 308.902C483.836 332.735 491.822 352.055 501.673 352.055C511.524 352.055 519.51 332.735 519.51 308.902C519.51 301.514 517.796 293.784 515.43 286.633L508.044 292.448Z" fill="#6C63FF"/>
<path d="M230.673 185.883H193.915V187.94H230.673V185.883Z" fill="#3F3D56"/>
<path d="M250.678 193.385H193.915V195.442H250.678V193.385Z" fill="#6C63FF"/>
<path d="M240.175 200.453H193.915V202.51H240.175V200.453Z" fill="#6C63FF"/>
<path d="M220.921 207.494H193.915V209.551H220.921V207.494Z" fill="#3F3D56"/>
<path d="M234.674 214.535H193.915V216.592H234.674V214.535Z" fill="#3F3D56"/>
<path d="M181.662 185.152H177.161V189.539H181.662V185.152Z" fill="#3F3D56"/>
<path d="M181.662 192.22H177.161V196.607H181.662V192.22Z" fill="#6C63FF"/>
<path d="M181.662 199.288H177.161V203.675H181.662V199.288Z" fill="#6C63FF"/>
<path d="M181.662 206.356H177.161V210.743H181.662V206.356Z" fill="#3F3D56"/>
<path d="M181.662 213.424H177.161V217.811H181.662V213.424Z" fill="#3F3D56"/>
<path d="M279.718 181.99H260.428C259.112 174.573 259.112 166.991 260.428 159.573H279.718C277.544 166.895 277.544 174.668 279.718 181.99Z" fill="#6C63FF"/>
<path d="M139.362 226.918L131.426 225.032C128.398 225.036 125.407 224.384 122.669 223.122C119.932 221.861 117.516 220.022 115.597 217.739C113.678 215.455 112.303 212.785 111.573 209.921C110.843 207.056 110.776 204.069 111.375 201.176C111.366 194.273 114.171 187.65 119.173 182.763C124.175 177.875 130.963 175.125 138.046 175.116C145.128 175.108 151.924 177.841 156.938 182.716C161.952 187.591 164.774 194.208 164.783 201.111C169.282 216.372 155.19 230.678 139.362 226.918Z" fill="#2F2E41"/>
<path d="M148.03 229.639C158.867 229.639 167.652 221.077 167.652 210.515C167.652 199.953 158.867 191.39 148.03 191.39C137.194 191.39 128.409 199.953 128.409 210.515C128.409 221.077 137.194 229.639 148.03 229.639Z" fill="#FFB8B8"/>
<path d="M135.234 220.492C135.234 220.492 129.262 240.448 125.85 242.111C122.437 243.774 153.149 246.269 153.149 246.269C153.149 246.269 152.296 227.144 154.002 225.481C155.708 223.818 135.234 220.492 135.234 220.492Z" fill="#FFB8B8"/>
<path d="M165.946 343.553C165.946 343.553 204.335 340.227 209.454 352.699C214.572 365.171 206.041 439.174 206.041 439.174H189.832V378.475C189.832 378.475 120.72 359.328 120.72 352.676C120.72 346.024 165.946 343.553 165.946 343.553Z" fill="#2F2E41"/>
<path d="M203.482 435.848L212.013 439.174C212.013 439.174 222.25 438.343 217.985 445.826C216.764 447.998 215.056 449.874 212.988 451.314C210.92 452.753 208.545 453.72 206.041 454.141C206.041 454.141 189.832 459.961 188.979 454.141C188.126 448.32 193.245 436.68 193.245 436.68L203.482 435.848Z" fill="#2F2E41"/>
<path d="M144.618 343.553C144.618 343.553 183.008 340.227 188.126 352.699C193.245 365.172 184.714 439.174 184.714 439.174H168.505V378.475C168.505 378.475 119.446 367.4 119.446 360.748C119.446 357.623 116.103 341.741 121.994 338.395C128.643 334.619 144.618 343.553 144.618 343.553Z" fill="#2F2E41"/>
<path d="M182.154 435.848L190.685 439.174C190.685 439.174 200.922 438.343 196.657 445.826C195.436 447.998 193.728 449.874 191.66 451.314C189.592 452.753 187.218 453.72 184.714 454.141C184.714 454.141 168.505 459.961 167.652 454.141C166.798 448.32 171.917 436.68 171.917 436.68L182.154 435.848Z" fill="#2F2E41"/>
<path d="M126.703 239.617L152.34 242.333C156.297 242.752 160.017 244.379 162.968 246.982C165.919 249.584 167.951 253.029 168.774 256.825L178.742 302.81C178.742 302.81 182.154 348.542 175.329 351.036C168.505 353.531 159.121 341.058 146.324 342.721C133.528 344.384 116.892 348.126 116.892 348.126C116.892 348.126 114.25 266.268 113.906 259.572C113.218 246.188 126.703 239.617 126.703 239.617Z" fill="#575A89"/>
<path d="M187.431 345.929L197.956 351.97C197.956 351.97 216.839 349.329 216.249 355.798C215.66 362.267 195.048 361.017 195.048 361.017L182.364 353.399L187.431 345.929Z" fill="#FFB8B8"/>
<path d="M109.946 194.961C116.945 194.961 122.62 189.43 122.62 182.607C122.62 175.784 116.945 170.254 109.946 170.254C102.946 170.254 97.271 175.784 97.271 182.607C97.271 189.43 102.946 194.961 109.946 194.961Z" fill="#2F2E41"/>
<path d="M121.64 175.966C121.638 174.139 121.221 172.335 120.417 170.684C119.614 169.033 118.444 167.576 116.993 166.419C115.542 165.262 113.845 164.433 112.026 163.992C110.206 163.552 108.309 163.51 106.471 163.871C108.093 163.124 109.859 162.721 111.652 162.689C113.446 162.657 115.225 162.997 116.874 163.686C118.523 164.374 120.003 165.396 121.216 166.684C122.429 167.972 123.347 169.496 123.911 171.156C124.475 172.815 124.67 174.573 124.485 176.311C124.299 178.05 123.737 179.731 122.835 181.242C121.934 182.754 120.713 184.061 119.254 185.078C117.795 186.095 116.131 186.799 114.373 187.142C116.547 186.144 118.386 184.562 119.673 182.583C120.959 180.604 121.642 178.309 121.64 175.966Z" fill="#2F2E41"/>
<path d="M132.513 182.972L149.6 179.906L162.741 187.933C165.972 189.907 168.554 192.742 170.182 196.103C171.809 199.463 172.414 203.208 171.924 206.894L158.763 203.642L155.816 196.44L152.306 202.047L133.954 225.066L123.651 218.67L114.465 204.64L132.513 182.972Z" fill="#2F2E41"/>
<path d="M146.585 246.69L155.116 242.532C155.116 242.532 173.031 245.027 176.443 256.668C179.856 268.308 195.212 348.963 195.212 348.963L180.709 355.615L160.235 306.557L146.585 246.69Z" fill="#575A89"/>
<path opacity="0.2" d="M153.847 279.409L162.385 311.711L177.526 347.989L177.001 349.245L158.943 312.317L153.847 279.409Z" fill="black"/>
<path d="M90.1395 457.549L87.1284 456.538L116.297 372.093L120.514 373.509L90.1395 457.549Z" fill="#3F3D56"/>
<path d="M201.627 457.549L204.638 456.538L175.469 372.093L171.253 373.509L201.627 457.549Z" fill="#3F3D56"/>
<path d="M139.992 474.989L143.177 475L144.166 376.286L139.707 376.27L139.992 474.989Z" fill="#3F3D56"/>
<path d="M82.7673 322.474L91.5043 356.892C92.7279 361.712 95.2753 366.116 98.8732 369.631C102.471 373.146 106.983 375.64 111.925 376.844C136.292 382.781 161.803 382.621 186.089 376.378L199.134 373.025C206.713 371.077 212.413 364.732 212.952 357.11C213.171 354.415 212.67 351.711 211.499 349.261C211.448 349.155 211.397 349.051 211.345 348.947C209.644 345.541 207.02 342.653 203.756 340.596C200.492 338.54 196.713 337.392 192.829 337.277L179.01 336.843L128.683 315.111C128.683 315.111 111.375 306.542 97.1454 305.583C87.7483 304.949 80.5049 313.562 82.7673 322.474Z" fill="#6C63FF"/>
<path d="M389.553 214.213H339.864V280.03H389.553V214.213Z" fill="#E6E6E6"/>
<path d="M383.82 221.808H345.597V272.436H383.82V221.808Z" fill="white"/>
<path d="M379.16 235.056H360.641V237.113H379.16V235.056Z" fill="#3F3D56"/>
<path d="M354.758 233.918H350.257V238.305H354.758V233.918Z" fill="#3F3D56"/>
<path d="M379.16 243.749H360.641V245.806H379.16V243.749Z" fill="#3F3D56"/>
<path d="M354.758 242.611H350.257V246.998H354.758V242.611Z" fill="#3F3D56"/>
<path d="M379.16 252.442H360.641V254.499H379.16V252.442Z" fill="#3F3D56"/>
<path d="M354.758 251.303H350.257V255.69H354.758V251.303Z" fill="#3F3D56"/>
<path d="M366.62 217.939C366.62 216.91 365.764 216.076 364.709 216.076C363.653 216.076 362.797 216.91 362.797 217.939C362.797 218.968 363.653 219.802 364.709 219.802C365.764 219.802 366.62 218.968 366.62 217.939Z" fill="#3F3D56"/>
</g>
<defs>
<clipPath id="clip0_217_258">
<rect width="552" height="475" fill="white"/>
</clipPath>
</defs>
</svg>
