<svg width="150" height="150" viewBox="0 0 150 150" fill="none" xmlns="http://www.w3.org/2000/svg">
<g clip-path="url(#clip0_210_18)">
<path d="M106.915 106.875H69.4146V56.123L101.839 73.8862L106.915 106.875Z" fill="#2F2E41"/>
<path d="M76.3421 97.9176C89.7883 97.9176 100.689 87.0173 100.689 73.5711C100.689 60.1249 89.7883 49.2246 76.3421 49.2246C62.8959 49.2246 51.9956 60.1249 51.9956 73.5711C51.9956 87.0173 62.8959 97.9176 76.3421 97.9176Z" fill="#FFB6B6"/>
<path d="M62.3655 101.518L61.2656 90.3993L83.2302 86.2922L96.2001 117.871L73.6437 143.811L57.5723 112.232L62.3655 101.518Z" fill="#FFB6B6"/>
<path d="M128.865 127.187C128.591 127.472 128.312 127.754 128.033 128.033C127.148 128.918 126.245 129.778 125.323 130.613C111.508 143.143 93.781 150 75 150C57.6852 150 41.2669 144.172 27.9841 133.444C27.9756 133.438 27.97 133.432 27.9615 133.424C27.5583 133.1 27.1607 132.77 26.7632 132.434C26.8337 132.231 26.9098 132.031 26.9859 131.834C31.2575 120.705 39.6936 115.26 44.8139 112.878C47.3515 111.696 49.0743 111.265 49.0743 111.265L55.0856 100.438L59.3177 108.333L62.4361 114.152L75.2312 138.025L86.2698 110.54L89.6899 102.02L90.5668 99.8374L94.7369 103.083L98.6842 106.153L106.633 107.907L113.081 109.331L121.838 111.265C125.38 114.149 127.534 119.636 128.738 126.454C128.783 126.696 128.825 126.942 128.865 127.187Z" fill="#6C63FF"/>
<path d="M63.5353 45.9033C66.501 40.9217 71.9477 37.5037 77.7233 37C83.4989 36.4962 89.4551 38.9196 93.2384 43.3125C95.4929 45.9302 96.9711 49.1361 99.1686 51.8018C103.898 57.5384 111.962 60.8925 114.027 68.0342C114.929 71.1506 114.48 74.4778 114.024 77.6897C113.633 80.4428 113.242 83.1958 112.851 85.9488C112.546 88.0913 112.255 90.35 113.058 92.3593C114.001 94.7167 116.256 96.2606 117.714 98.3388C120.196 101.875 120.014 107.052 117.292 110.406C116.111 111.86 114.545 112.957 113.307 114.363C112.069 115.77 111.151 117.692 111.669 119.492C112.663 122.941 118.071 123.768 118.664 127.308C118.968 129.117 117.718 130.924 116.08 131.752C114.442 132.579 112.514 132.603 110.693 132.382C103.77 131.541 97.3601 127.215 93.9895 121.11C90.6189 115.004 90.3734 107.275 93.3499 100.968C95.7946 95.7886 100.338 91.2113 100.289 85.4837C100.262 82.3633 98.8305 79.4489 97.431 76.6599C94.5666 70.9515 91.7021 65.2431 88.8377 59.5348C87.3033 56.477 85.5226 53.1818 82.3637 51.8682C79.9223 50.853 77.1522 51.2468 74.541 51.662C71.9298 52.0772 69.1637 52.4814 66.715 51.4839C64.2664 50.4863 62.4162 47.5224 63.5829 45.1497" fill="#2F2E41"/>
<path d="M67.8021 46.1632C63.0983 44.6149 57.8217 47.1005 54.6372 50.8928C51.4528 54.6852 49.908 59.5505 48.4365 64.2789C47.5936 66.9873 46.7507 69.6957 45.9078 72.4041C45.1148 74.952 44.3219 77.4998 43.529 80.0476C42.5963 83.0444 41.656 86.2282 42.4214 89.272C42.9748 91.4725 44.3987 93.4706 44.4293 95.7395C44.4613 98.1095 42.9771 100.19 41.6764 102.172C40.3758 104.153 39.1548 106.507 39.7745 108.795C40.7171 112.275 45.5551 114.188 45.2899 117.783C45.2014 118.983 44.5075 120.093 44.5201 121.296C44.5362 122.827 45.7346 124.149 47.1388 124.759C48.5429 125.369 50.1223 125.402 51.653 125.375C56.3479 125.293 61.0343 124.735 65.6176 123.714C67.3809 123.321 69.1741 122.839 70.6419 121.786C72.1097 120.733 73.2047 118.988 73.0137 117.191C72.716 114.392 69.7061 112.804 68.1872 110.433C66.6953 108.105 66.7298 105.155 66.0865 102.466C65.2024 98.7699 63.0188 95.5432 61.3796 92.1146C55.2169 79.2247 57.3742 62.7949 66.6556 51.9329C67.4762 50.9725 68.3728 50.0064 68.7151 48.7904C69.0575 47.5745 68.6161 46.0252 67.4267 45.5999" fill="#2F2E41"/>
<path d="M128.033 21.9671C113.867 7.80169 95.0329 0 75 0C54.9671 0 36.1325 7.80169 21.9671 21.9671C7.80169 36.1325 0 54.9671 0 75C0 93.2848 6.49906 110.571 18.4088 124.221C19.5451 125.526 20.7322 126.798 21.9671 128.033C22.2575 128.323 22.5507 128.614 22.8468 128.896C23.6363 129.66 24.4398 130.407 25.2575 131.132C25.7538 131.574 26.2556 132.008 26.7632 132.434C27.1607 132.77 27.5583 133.1 27.9615 133.424C27.9699 133.432 27.9756 133.438 27.984 133.444C41.2669 144.172 57.6852 150 75 150C93.781 150 111.508 143.143 125.323 130.613C126.245 129.778 127.148 128.918 128.033 128.033C128.312 127.754 128.591 127.472 128.865 127.187C129.626 126.403 130.365 125.605 131.086 124.796C143.315 111.059 150 93.5442 150 75C150 54.9671 142.198 36.1325 128.033 21.9671ZM130.903 124.094C130.198 124.895 129.477 125.684 128.738 126.454C127.587 127.652 126.4 128.814 125.174 129.933C124.709 130.362 124.238 130.779 123.761 131.194C118.948 135.381 113.591 138.956 107.814 141.804C105.787 142.805 103.709 143.715 101.583 144.53C93.3242 147.699 84.3609 149.436 75 149.436C65.9662 149.436 57.3045 147.818 49.2885 144.857C45.9981 143.645 42.8177 142.204 39.7641 140.555C39.3158 140.312 38.8703 140.067 38.4276 139.816C36.0987 138.496 33.8459 137.055 31.6833 135.499C30.0677 134.34 28.5 133.119 26.9859 131.834C26.4558 131.385 25.9314 130.931 25.4154 130.466C24.5752 129.719 23.7519 128.949 22.9483 128.16C21.4258 126.668 19.9709 125.115 18.5808 123.499C7.35621 110.461 0.56391 93.5103 0.56391 75C0.56391 33.9558 33.9558 0.56391 75 0.56391C116.044 0.56391 149.436 33.9558 149.436 75C149.436 93.7951 142.435 110.983 130.903 124.094Z" fill="#3F3D56"/>
</g>
<defs>
<clipPath id="clip0_210_18">
<rect width="150" height="150" fill="white"/>
</clipPath>
</defs>
</svg>
