<svg width="91" height="56" viewBox="0 0 91 56" fill="none" xmlns="http://www.w3.org/2000/svg">
<path d="M22.08 55.752C21.856 55.752 21.744 55.656 21.744 55.464C21.744 55.336 21.824 55.208 21.984 55.08C22.144 54.92 22.224 54.744 22.224 54.552C22.224 54.2 22.112 53.832 21.888 53.448C21.696 53.064 21.472 52.776 21.216 52.584C19.936 52.648 18.784 52.456 17.76 52.008C16.576 51.464 15.408 50.632 14.256 49.512C13.136 48.392 12.24 47 11.568 45.336C11.344 45.752 11.12 46.12 10.896 46.44C10.704 46.76 10.432 47.064 10.08 47.352C10.112 47.928 9.856 48.424 9.312 48.84C8.8 49.288 8.224 49.624 7.584 49.848C6.944 50.104 6.448 50.232 6.096 50.232C5.776 50.232 5.312 50.168 4.704 50.04C4.128 49.912 3.536 49.688 2.928 49.368C2.352 49.08 1.92 48.68 1.632 48.168C1.728 48.2 1.84 48.216 1.968 48.216C2.128 48.216 2.272 48.216 2.4 48.216C2.912 48.216 3.504 48.088 4.176 47.832C4.88 47.608 5.584 47.08 6.288 46.248C6.736 45.704 7.28 45.432 7.92 45.432C8.368 45.432 8.784 45.544 9.168 45.768C9.552 46.024 9.824 46.36 9.984 46.776C10.272 46.52 10.512 46.2 10.704 45.816C10.928 45.432 11.072 44.936 11.136 44.328C11.136 44.296 11.136 44.264 11.136 44.232C11.168 44.232 11.184 44.232 11.184 44.232C10.992 43.56 10.832 42.856 10.704 42.12C10.608 41.384 10.56 40.616 10.56 39.816C10.56 38.984 10.624 38.12 10.752 37.224C10.88 36.328 11.088 35.4 11.376 34.44C10 34.024 8.672 33.416 7.392 32.616C7.328 32.584 7.216 32.568 7.056 32.568C6.768 32.568 6.4 32.696 5.952 32.952C5.504 33.176 5.136 33.448 4.848 33.768C4.56 34.088 4.48 34.408 4.608 34.728L4.704 35.064C4.704 35.192 4.656 35.256 4.56 35.256C4.304 35.256 4.064 35.08 3.84 34.728C3.648 34.408 3.552 34.056 3.552 33.672C3.552 33.32 3.648 33.032 3.84 32.808C4.064 32.552 4.368 32.36 4.752 32.232C5.168 32.104 5.568 32.04 5.952 32.04C6.208 32.04 6.448 32.072 6.672 32.136C6.352 31.88 5.952 31.512 5.472 31.032C4.992 30.552 4.512 30.056 4.032 29.544C3.584 29.032 3.248 28.6 3.024 28.248C2.224 26.936 1.632 25.688 1.248 24.504C0.896 23.32 0.72 22.184 0.72 21.096C0.72 19.336 1.136 17.816 1.968 16.536C2.8 15.224 3.904 14.2 5.28 13.464C6.656 12.728 8.16 12.36 9.792 12.36C11.424 12.36 13.056 12.744 14.688 13.512H14.736C14.896 13.512 15.056 13.528 15.216 13.56C15.376 13.56 15.52 13.56 15.648 13.56C16 13.56 16.32 13.528 16.608 13.464C16.928 13.4 17.216 13.304 17.472 13.176C17.44 13.112 17.392 13.032 17.328 12.936C17.264 12.84 17.232 12.728 17.232 12.6V12.36C17.232 12.04 17.328 11.8 17.52 11.64C17.712 11.448 17.888 11.32 18.048 11.256C18.24 11.128 18.432 11 18.624 10.872C18.848 10.712 18.992 10.536 19.056 10.344C19.12 10.216 19.152 10.104 19.152 10.008C19.152 9.88 19.152 9.768 19.152 9.672C19.152 9.512 19.136 9.368 19.104 9.24C19.104 9.112 19.104 9 19.104 8.904C19.52 9.192 19.808 9.624 19.968 10.2C20.128 10.776 20.208 11.24 20.208 11.592C20.208 12.296 20.016 12.824 19.632 13.176C19.28 13.496 18.896 13.656 18.48 13.656C18.16 13.656 17.92 13.592 17.76 13.464C17.44 13.688 17.088 13.832 16.704 13.896C16.352 13.96 16 13.992 15.648 13.992L15.936 14.184C17.056 14.92 18.096 15.8 19.056 16.824C20.048 17.848 20.864 18.984 21.504 20.232C22.144 19.592 22.8 18.984 23.472 18.408C24.176 17.8 24.88 17.208 25.584 16.632C25.552 16.152 25.52 15.688 25.488 15.24C25.488 14.76 25.488 14.296 25.488 13.848C25.488 11.96 25.728 10.088 26.208 8.232C26.688 6.376 27.728 4.504 29.328 2.616C29.968 1.848 30.688 1.288 31.488 0.935998C32.288 0.551999 33.072 0.36 33.84 0.36C34.96 0.36 35.888 0.679999 36.624 1.32C36.976 1.64 37.264 2.04 37.488 2.52C37.712 2.968 37.824 3.48 37.824 4.056C37.824 4.632 37.696 5.272 37.44 5.976C37.184 6.68 36.768 7.432 36.192 8.232C35.68 8.936 34.96 9.72 34.032 10.584C33.104 11.448 32.112 12.312 31.056 13.176C30 14.04 29.04 14.84 28.176 15.576C28.432 16.76 28.672 17.96 28.896 19.176C29.12 20.392 29.232 21.608 29.232 22.824C29.232 24.04 29.056 25.272 28.704 26.52C28.384 27.768 27.76 29 26.832 30.216C25.584 31.88 24 33.112 22.08 33.912C20.192 34.744 18.224 35.16 16.176 35.16C15.152 35.16 14.16 35.064 13.2 34.872C12.976 35.576 12.784 36.28 12.624 36.984C12.496 37.72 12.4 38.408 12.336 39.048C12.336 39.048 12.368 39.112 12.432 39.24C12.624 40.2 13.024 40.936 13.632 41.448C13.856 41.224 14.128 41.112 14.448 41.112C14.96 41.112 15.264 41.288 15.36 41.64C15.616 42.376 15.968 42.84 16.416 43.032C16.896 43.256 17.248 43.384 17.472 43.416C17.28 43.608 17.04 43.736 16.752 43.8C16.496 43.864 16.224 43.896 15.936 43.896C15.712 43.896 15.504 43.88 15.312 43.848C15.12 43.816 14.96 43.784 14.832 43.752C14.608 43.688 14.304 43.512 13.92 43.224C13.536 42.968 13.344 42.632 13.344 42.216C13.344 42.024 13.376 41.864 13.44 41.736C13.12 41.48 12.88 41.208 12.72 40.92C12.56 40.664 12.416 40.376 12.288 40.056C12.224 42.008 12.448 43.752 12.96 45.288C13.504 46.824 14.224 48.088 15.12 49.08C16.048 50.104 17.04 50.84 18.096 51.288C19.024 51.672 20.016 51.864 21.072 51.864C22.192 51.864 23.264 51.656 24.288 51.24C25.344 50.856 26.192 50.312 26.832 49.608C27.504 48.904 27.84 48.104 27.84 47.208C27.84 47.112 27.84 47.016 27.84 46.92C27.84 46.824 27.824 46.728 27.792 46.632C27.76 46.376 27.616 46.088 27.36 45.768C27.104 45.48 26.672 45.272 26.064 45.144C25.744 45.08 25.408 44.92 25.056 44.664C24.704 44.44 24.464 44.12 24.336 43.704C24.304 43.64 24.288 43.528 24.288 43.368C24.288 42.856 24.528 42.456 25.008 42.168C25.168 42.104 25.248 42.104 25.248 42.168C25.248 42.264 25.216 42.376 25.152 42.504C25.088 42.632 25.056 42.712 25.056 42.744C25.056 42.904 25.152 43.048 25.344 43.176C25.568 43.336 25.792 43.416 26.016 43.416C26.368 43.416 26.672 43.416 26.928 43.416C27.184 43.448 27.424 43.496 27.648 43.56C27.616 43.4 27.568 43.256 27.504 43.128C27.472 43 27.472 42.872 27.504 42.744C27.568 42.296 27.712 41.992 27.936 41.832C28.16 41.704 28.384 41.64 28.608 41.64C28.736 41.64 28.896 41.672 29.088 41.736C29.216 41.8 29.28 41.896 29.28 42.024C29.28 42.184 29.152 42.28 28.896 42.312C28.672 42.344 28.528 42.52 28.464 42.84C28.4 43.192 28.384 43.544 28.416 43.896C28.672 44.056 28.848 44.248 28.944 44.472C29.072 44.728 29.136 44.984 29.136 45.24C29.136 45.784 28.944 46.232 28.56 46.584C28.592 46.712 28.608 46.824 28.608 46.92C28.608 47.048 28.608 47.176 28.608 47.304C28.608 48.296 28.288 49.16 27.648 49.896C27.008 50.664 26.176 51.272 25.152 51.72C24.128 52.168 23.056 52.44 21.936 52.536C22.16 52.664 22.4 52.856 22.656 53.112C22.944 53.368 23.136 53.624 23.232 53.88C23.296 54.008 23.328 54.12 23.328 54.216C23.328 54.312 23.328 54.408 23.328 54.504C23.328 54.92 23.184 55.224 22.896 55.416C22.608 55.64 22.336 55.752 22.08 55.752ZM27.984 14.664C28.816 13.96 29.728 13.208 30.72 12.408C31.712 11.608 32.64 10.808 33.504 10.008C34.4 9.208 35.088 8.472 35.568 7.8C36.112 7.064 36.496 6.392 36.72 5.784C36.944 5.144 37.056 4.568 37.056 4.056C37.056 3.608 36.96 3.208 36.768 2.856C36.608 2.472 36.384 2.152 36.096 1.896C35.488 1.384 34.752 1.128 33.888 1.128C33.216 1.128 32.528 1.288 31.824 1.608C31.12 1.928 30.48 2.424 29.904 3.096C28.976 4.216 28.336 5.352 27.984 6.504C27.632 7.656 27.456 8.84 27.456 10.056C27.456 10.824 27.504 11.592 27.6 12.36C27.728 13.128 27.856 13.896 27.984 14.664ZM11.568 33.864C11.76 33.288 11.984 32.696 12.24 32.088C12.496 31.48 12.784 30.872 13.104 30.264C13.936 28.6 15.04 26.968 16.416 25.368C17.824 23.768 19.344 22.216 20.976 20.712C20.4 19.528 19.632 18.456 18.672 17.496C17.712 16.536 16.672 15.752 15.552 15.144C13.888 14.216 12.256 13.752 10.656 13.752C9.12 13.752 7.744 14.152 6.528 14.952C5.312 15.72 4.352 16.776 3.648 18.12C2.944 19.432 2.592 20.888 2.592 22.488C2.592 24.088 2.976 25.704 3.744 27.336C4.576 29.096 5.68 30.52 7.056 31.608C8.464 32.664 9.968 33.416 11.568 33.864ZM14.736 34.296C16.592 34.296 18.336 33.864 19.968 33C21.632 32.104 22.992 30.792 24.048 29.064C25.136 27.304 25.712 25.128 25.776 22.536C25.808 21.704 25.808 20.904 25.776 20.136C25.744 19.336 25.696 18.552 25.632 17.784C25.024 18.36 24.4 18.936 23.76 19.512C23.152 20.088 22.56 20.68 21.984 21.288C22.24 21.928 22.432 22.584 22.56 23.256C22.72 23.896 22.8 24.536 22.8 25.176C22.8 25.464 22.784 25.752 22.752 26.04C22.72 26.328 22.672 26.616 22.608 26.904L21.888 26.76C21.984 26.184 22.032 25.624 22.032 25.08C22.032 23.96 21.84 22.872 21.456 21.816C20.144 23.192 18.928 24.584 17.808 25.992C16.72 27.4 15.792 28.856 15.024 30.36C14.384 31.672 13.84 32.952 13.392 34.2C13.616 34.232 13.84 34.248 14.064 34.248C14.288 34.28 14.512 34.296 14.736 34.296ZM5.184 29.256C4.96 29.256 4.88 29.08 4.944 28.728C5.008 28.088 5.168 27.576 5.424 27.192C5.712 26.776 6.032 26.328 6.384 25.848C6.192 25.592 6.096 25.304 6.096 24.984C6.096 24.568 6.24 24.136 6.528 23.688C6.848 23.24 7.312 22.856 7.92 22.536C8.4 22.28 9.008 22.072 9.744 21.912C10.512 21.752 11.248 21.672 11.952 21.672C12.496 21.672 13.008 21.72 13.488 21.816C13.968 21.912 14.352 22.088 14.64 22.344C14.896 22.568 15.024 22.744 15.024 22.872C15.024 23 15.008 23.096 14.976 23.16C14.848 23.128 14.72 23.112 14.592 23.112C14.464 23.08 14.336 23.064 14.208 23.064C13.536 23.064 13.056 23.16 12.768 23.352C12.512 23.512 12.304 23.752 12.144 24.072C11.984 24.36 11.776 24.696 11.52 25.08C11.296 25.432 10.896 25.784 10.32 26.136C9.712 26.52 9.072 26.712 8.4 26.712C7.856 26.712 7.36 26.584 6.912 26.328C6.4 26.712 6.048 27.112 5.856 27.528C5.664 27.944 5.536 28.408 5.472 28.92C5.44 29.144 5.344 29.256 5.184 29.256ZM36.8066 52.344C36.6786 52.344 36.5346 52.296 36.3746 52.2C35.9586 51.912 35.7506 51.576 35.7506 51.192C35.7506 50.52 36.1826 50.024 37.0466 49.704C37.1746 49.64 37.3026 49.608 37.4306 49.608C35.6066 48.936 33.9746 47.944 32.5346 46.632C31.1266 45.32 30.0226 43.768 29.2226 41.976C28.4226 40.184 28.0226 38.264 28.0226 36.216C28.0226 34.808 28.2306 33.352 28.6466 31.848C29.0946 30.312 29.7666 28.776 30.6626 27.24C31.6866 25.544 32.9506 24.104 34.4546 22.92C35.9586 21.736 37.5906 20.84 39.3506 20.232C41.1426 19.624 42.9346 19.32 44.7266 19.32C44.9826 19.32 45.2226 19.32 45.4466 19.32C45.6706 19.32 45.8946 19.336 46.1186 19.368C46.3426 19.304 46.5506 19.256 46.7426 19.224C46.9346 19.16 47.1106 19.08 47.2706 18.984C47.9746 18.632 48.4386 18.216 48.6626 17.736C48.1826 17.64 47.7826 17.384 47.4626 16.968C47.1746 16.52 47.0306 16.04 47.0306 15.528C47.0306 14.984 47.1106 14.536 47.2706 14.184C47.4306 13.8 47.5746 13.48 47.7026 13.224C47.7666 13.064 47.8306 12.888 47.8946 12.696C47.9586 12.472 47.9906 12.248 47.9906 12.024C47.9906 11.736 47.9266 11.464 47.7986 11.208C47.7026 10.952 47.4946 10.792 47.1746 10.728C47.2386 10.664 47.3026 10.6 47.3666 10.536C47.4626 10.472 47.6226 10.44 47.8466 10.44C48.3906 10.44 48.9026 10.696 49.3826 11.208C49.8626 11.72 50.2626 12.328 50.5826 13.032C50.9026 13.704 51.0626 14.312 51.0626 14.856C51.0626 15.656 50.8546 16.328 50.4386 16.872C50.0546 17.384 49.6226 17.672 49.1426 17.736C48.8546 18.472 48.3746 19.032 47.7026 19.416L47.4626 19.56C48.8706 19.784 50.2146 20.248 51.4946 20.952C52.7746 21.624 53.9266 22.52 54.9506 23.64C55.5266 24.28 56.0226 25.016 56.4386 25.848C56.8866 26.648 57.2226 27.48 57.4466 28.344C57.6066 28.696 57.8626 28.984 58.2146 29.208C58.5666 29.4 58.8546 29.528 59.0786 29.592C59.2066 29.624 59.3826 29.64 59.6066 29.64C59.8626 29.64 60.0866 29.608 60.2786 29.544C60.5026 29.448 60.6306 29.304 60.6626 29.112C60.7266 28.952 60.7906 28.872 60.8546 28.872C61.0786 28.872 61.1906 29.128 61.1906 29.64C61.1906 30.024 61.0626 30.328 60.8066 30.552C60.5506 30.744 60.2466 30.84 59.8946 30.84C59.7666 30.84 59.6066 30.824 59.4146 30.792C59.2546 30.76 59.0946 30.696 58.9346 30.6C58.3266 30.312 57.8946 29.848 57.6386 29.208C57.7026 29.528 57.7506 29.848 57.7826 30.168C57.8146 30.488 57.8306 30.808 57.8306 31.128C57.8306 31.864 57.7346 32.584 57.5426 33.288C57.3826 34.024 57.1266 34.696 56.7746 35.304C56.8066 35.4 56.8226 35.496 56.8226 35.592C56.8546 35.688 56.8706 35.784 56.8706 35.88C56.8706 36.296 56.7586 36.696 56.5346 37.08C56.3106 37.496 55.9586 37.88 55.4786 38.232C54.8706 38.616 54.0386 38.808 52.9826 38.808C52.6946 38.808 52.4066 38.792 52.1186 38.76C51.8306 38.728 51.5426 38.68 51.2546 38.616C50.8386 38.552 50.3746 38.6 49.8626 38.76C49.3826 38.92 49.0946 39.176 48.9986 39.528C48.9346 39.752 48.8706 39.912 48.8066 40.008C48.7746 40.104 48.6946 40.072 48.5666 39.912C48.2786 39.528 48.1346 39.128 48.1346 38.712C48.1346 37.912 48.5826 37.224 49.4786 36.648C50.3746 36.072 51.4466 35.848 52.6946 35.976C53.2386 36.008 53.7346 35.976 54.1826 35.88C54.6306 35.784 55.0146 35.64 55.3346 35.448C54.9186 35.48 54.5186 35.4 54.1346 35.208C53.7506 35.048 53.5266 34.776 53.4626 34.392V34.2C53.4626 33.816 53.5426 33.544 53.7026 33.384C53.7986 33.288 53.8946 33.24 53.9906 33.24C54.1506 33.24 54.1986 33.352 54.1346 33.576C54.0066 33.896 54.1026 34.184 54.4226 34.44C54.7426 34.696 55.1106 34.824 55.5266 34.824C55.8146 34.824 56.0706 34.76 56.2946 34.632L56.3906 34.488C56.6786 34.04 56.8706 33.544 56.9666 33C57.0626 32.456 57.1106 31.88 57.1106 31.272C57.1106 30.056 56.8706 28.824 56.3906 27.576C55.9106 26.328 55.2546 25.24 54.4226 24.312C53.2706 23.064 51.9586 22.152 50.4866 21.576C49.0146 21 47.4786 20.712 45.8786 20.712C43.0626 20.712 40.3906 21.48 37.8626 23.016C38.0546 22.984 38.2306 22.968 38.3906 22.968C38.5826 22.968 38.7586 22.968 38.9186 22.968C39.7826 22.968 40.4546 23.08 40.9346 23.304L40.9826 23.256C41.2066 23.032 41.5746 22.92 42.0866 22.92C42.5026 22.92 42.9346 23.032 43.3826 23.256C43.8306 23.48 44.2306 23.816 44.5826 24.264C44.9346 24.68 45.2226 25.24 45.4466 25.944C45.6706 26.648 45.7826 27.32 45.7826 27.96C45.7826 28.312 45.7346 28.648 45.6386 28.968C45.5746 29.288 45.4466 29.56 45.2546 29.784C45.0626 30.008 44.8866 30.136 44.7266 30.168C44.5986 30.168 44.5026 30.152 44.4386 30.12C44.5666 29.96 44.6306 29.768 44.6306 29.544C44.6306 29.16 44.4546 28.808 44.1026 28.488C43.7826 28.168 43.4466 27.944 43.0946 27.816C42.7746 27.688 42.4386 27.56 42.0866 27.432C41.7346 27.272 41.3666 26.984 40.9826 26.568C40.5026 26.088 40.2626 25.496 40.2626 24.792C40.2626 24.376 40.3586 24.024 40.5506 23.736C40.1986 23.608 39.7346 23.544 39.1586 23.544C38.6786 23.544 38.1666 23.608 37.6226 23.736C37.1106 23.832 36.6146 24.008 36.1346 24.264C34.5986 25.448 33.3826 26.872 32.4866 28.536C31.7186 29.88 31.1586 31.24 30.8066 32.616C30.4546 33.96 30.2786 35.288 30.2786 36.6C30.2786 38.712 30.7106 40.68 31.5746 42.504C32.4386 44.328 33.6546 45.832 35.2226 47.016C36.8226 48.2 38.6626 48.936 40.7426 49.224C41.2226 49.288 41.6866 49.336 42.1346 49.368C42.6146 49.4 43.0786 49.416 43.5266 49.416C44.8706 49.416 46.1506 49.272 47.3666 48.984C48.6146 48.728 49.7826 48.36 50.8706 47.88C50.1986 47.88 49.5906 47.672 49.0466 47.256C48.5346 46.84 48.2786 46.376 48.2786 45.864C48.2786 45.416 48.4386 45.096 48.7586 44.904C49.0786 44.744 49.3666 44.664 49.6226 44.664C49.8146 44.664 49.9426 44.696 50.0066 44.76C50.1026 44.856 50.0386 44.968 49.8146 45.096C49.5906 45.224 49.4786 45.448 49.4786 45.768C49.4786 46.12 49.5746 46.44 49.7666 46.728C49.8626 46.92 50.0386 47.128 50.2946 47.352C50.5506 47.576 50.8706 47.688 51.2546 47.688C53.5266 46.6 55.5906 45.112 57.4466 43.224C59.3346 41.336 61.0786 39.176 62.6786 36.744C64.2786 34.312 65.7986 31.768 67.2386 29.112C68.7106 26.456 70.1826 23.816 71.6546 21.192C73.0626 18.696 74.4866 16.376 75.9266 14.232C77.3986 12.056 78.9026 10.168 80.4386 8.568C82.0066 6.968 83.6226 5.768 85.2866 4.968C84.0066 4.904 82.5986 4.792 81.0626 4.632C79.5586 4.472 78.0866 4.328 76.6466 4.2C75.2066 4.04 73.9266 3.96 72.8066 3.96C70.1186 3.96 67.9586 4.376 66.3266 5.208C64.6946 6.008 63.4946 7.016 62.7266 8.232C61.9906 9.448 61.6226 10.68 61.6226 11.928C61.6226 13.304 62.0226 14.504 62.8226 15.528C63.6546 16.52 64.7586 17.016 66.1346 17.016C67.0626 17.016 67.9426 16.76 68.7746 16.248C69.6386 15.736 70.3266 15.064 70.8386 14.232C71.3826 13.368 71.6386 12.424 71.6066 11.4C71.5746 11.08 71.4786 10.76 71.3186 10.44C71.1586 10.088 70.9186 9.8 70.5986 9.576C70.1826 9.192 69.7186 9 69.2066 9C68.9186 9 68.7106 9.08 68.5826 9.24C68.4866 9.336 68.4066 9.384 68.3426 9.384C68.2146 9.384 68.1506 9.272 68.1506 9.048C68.1506 8.888 68.1666 8.76 68.1986 8.664C68.4546 7.896 68.9186 7.512 69.5906 7.512C70.2306 7.512 70.8066 7.848 71.3186 8.52C71.5746 8.84 71.7506 9.288 71.8466 9.864C71.9746 10.44 72.0386 10.968 72.0386 11.448C72.0386 11.64 72.0386 11.832 72.0386 12.024C72.0386 12.216 72.0226 12.408 71.9906 12.6C72.0866 12.44 72.1826 12.296 72.2786 12.168C72.4066 12.008 72.5506 11.88 72.7106 11.784C72.9986 11.592 73.3026 11.496 73.6226 11.496C73.9426 11.496 74.2146 11.592 74.4386 11.784C74.6626 11.976 74.7746 12.248 74.7746 12.6C74.7746 12.856 74.7106 13.032 74.5826 13.128C74.4866 13.192 74.4226 13.128 74.3906 12.936C74.3266 12.68 74.0706 12.552 73.6226 12.552C73.5266 12.552 73.4306 12.568 73.3346 12.6C73.2386 12.6 73.1426 12.616 73.0466 12.648C72.8226 12.712 72.5666 12.872 72.2786 13.128C72.0226 13.352 71.7986 13.64 71.6066 13.992C71.0946 15.144 70.2786 16.024 69.1586 16.632C68.0706 17.24 66.8866 17.544 65.6066 17.544C64.5186 17.544 63.5586 17.336 62.7266 16.92C61.9266 16.504 61.2546 15.944 60.7106 15.24C60.7106 15.368 60.7106 15.496 60.7106 15.624C60.7106 15.752 60.6946 15.88 60.6626 16.008C60.5666 16.488 60.3426 16.872 59.9906 17.16C60.1186 17.384 60.1826 17.656 60.1826 17.976C60.1826 18.2 60.1346 18.456 60.0386 18.744C59.9426 19.032 59.7826 19.304 59.5586 19.56C59.2706 19.88 58.8546 20.168 58.3106 20.424C57.7666 20.68 57.2386 20.808 56.7266 20.808C56.4066 20.808 56.1186 20.728 55.8626 20.568C55.7026 20.472 55.6066 20.376 55.5746 20.28C55.5426 20.152 55.5266 20.072 55.5266 20.04C55.8786 20.2 56.1986 20.12 56.4866 19.8C56.7746 19.48 56.9346 19.176 56.9666 18.888C57.0306 18.664 57.0946 18.424 57.1586 18.168C57.2226 17.912 57.3666 17.624 57.5906 17.304C57.9426 16.856 58.4066 16.632 58.9826 16.632C59.3026 16.632 59.5746 16.728 59.7986 16.92C59.9266 16.792 60.0226 16.632 60.0866 16.44C60.1826 16.248 60.2466 16.04 60.2786 15.816V15.432C60.2786 15.272 60.2626 15.096 60.2306 14.904C60.2306 14.712 60.2146 14.536 60.1826 14.376C59.9586 13.928 59.7986 13.448 59.7026 12.936C59.6066 12.424 59.5746 11.896 59.6066 11.352L59.5586 11.4C59.4306 11.528 59.2866 11.624 59.1266 11.688C58.9666 11.72 58.8066 11.736 58.6466 11.736C58.0706 11.736 57.7346 11.464 57.6386 10.92C57.6066 10.76 57.6226 10.648 57.6866 10.584C57.7826 10.488 57.8626 10.52 57.9266 10.68C58.0226 10.84 58.1826 10.92 58.4066 10.92C58.5986 10.92 58.8226 10.856 59.0786 10.728C59.3346 10.632 59.5906 10.376 59.8466 9.96C60.1666 8.84 60.8066 7.784 61.7666 6.792C62.7266 5.768 64.0386 4.936 65.7026 4.296C67.3666 3.656 69.4306 3.336 71.8946 3.336C72.8226 3.336 73.9586 3.384 75.3026 3.48C76.6786 3.576 78.1186 3.688 79.6226 3.816C81.1266 3.944 82.5346 4.056 83.8466 4.152C85.1586 4.248 86.2146 4.296 87.0146 4.296C87.7826 4.072 88.6146 3.96 89.5106 3.96C90.1826 3.96 90.5186 4.072 90.5186 4.296C90.5186 4.52 90.1826 4.632 89.5106 4.632C87.3986 4.728 85.2866 5.928 83.1746 8.232C81.5426 10.024 80.0866 11.992 78.8066 14.136C77.5266 16.28 76.3266 18.52 75.2066 20.856C74.1186 23.16 73.0146 25.496 71.8946 27.864C70.8066 30.2 69.6226 32.472 68.3426 34.68C67.0626 36.92 65.6066 39 63.9746 40.92C61.3506 44.024 58.4386 46.424 55.2386 48.12C52.0386 49.816 48.4546 50.664 44.4866 50.664C43.8466 50.664 43.1906 50.648 42.5186 50.616C41.8786 50.584 41.2226 50.504 40.5506 50.376L38.9666 50.088C38.4546 50.12 38.0226 50.264 37.6706 50.52C37.3826 50.744 37.1426 51 36.9506 51.288C36.7906 51.576 36.7906 51.816 36.9506 52.008C37.0146 52.072 37.0466 52.136 37.0466 52.2C37.0466 52.296 36.9666 52.344 36.8066 52.344Z" fill="#64FFDA"/>
</svg>
